<?xml version="1.0" encoding="utf-8"?>
<!-- Generator: Adobe Illustrator 15.1.0, SVG Export Plug-In . SVG Version: 6.00 Build 0)  -->
<!DOCTYPE svg PUBLIC "-//W3C//DTD SVG 1.0//EN" "http://www.w3.org/TR/2001/REC-SVG-20010904/DTD/svg10.dtd">
<svg version="1.0" id="Layer_1" xmlns="http://www.w3.org/2000/svg" xmlns:xlink="http://www.w3.org/1999/xlink" x="0px" y="0px"
	 width="600.961px" height="775.294px" viewBox="0 0 600.961 775.294" enable-background="new 0 0 600.961 775.294"
	 xml:space="preserve">
<g>
	<g>
		<g>
			<g>
				<path fill="#3A3A3E" d="M299.53,543.497c123.09,0,222.861-100.068,222.861-223.519c0-123.447-99.771-223.517-222.861-223.517
					c-123.08,0-222.869,100.069-222.869,223.517C76.661,443.429,176.45,543.497,299.53,543.497z"/>
			</g>
		</g>
	</g>
	<g>
		<g>
			<g>
				<path fill="#EBF5FF" d="M299.608,0C134.14,0,0,134.138,0,299.608c0,165.475,134.14,299.613,299.608,299.613
					s299.607-134.139,299.607-299.613C599.216,134.138,465.077,0,299.608,0z M476.554,395.663
					c-13.109,40.295-42.271,58.854-42.271,58.854c-29.15,14.48-149.785,14.49-149.785,14.49c-79.7,0-144.316-64.615-144.316-144.331
					c0-1.675,0.038-3.343,0.098-5.001c0.188-23.05,1.739-119.164,14.468-144.769c0,0,18.541-29.171,58.856-42.29
					c0,0,4.526-1.304,9.289,2.77c0,0,24.942,21.554,40.73,39.71c0,0,5.697,4.76,15.804,5.287c1.683-0.055,3.378-0.156,5.071-0.156
					c0.027,0,0.049,0,0.072,0c0.008,0,0.014,0,0.014,0c0.186,0,0.34,0.046,0.48,0.065c79.266,0.306,143.445,64.539,143.766,143.79
					c0.033,0.166,0.045,0.359,0.023,0.594c-0.014,0.13-0.014,0.244-0.023,0.371c-0.004,1.545-0.039,3.082-0.092,4.616
					c0.484,10.217,5.318,15.974,5.318,15.974c18.166,15.791,39.732,40.739,39.732,40.739
					C477.86,391.134,476.554,395.663,476.554,395.663z"/>
				<path fill="#EBF5FF" d="M408.735,333.566c0,16.746-13.594,30.327-30.344,30.327c-16.732,0-30.332-13.581-30.332-30.327
					s13.6-30.332,30.332-30.332C395.142,303.234,408.735,316.82,408.735,333.566z"/>
			</g>
		</g>
	</g>
</g>
<g>
	<g>
		<path fill="#EBF5FF" d="M74.073,715.488c0.09,4.61,0.621,8.883,1.597,12.824c0.976,3.947,2.546,7.376,4.719,10.299
			c2.169,2.929,4.936,5.231,8.304,6.912c3.366,1.685,7.488,2.525,12.36,2.525c7.087,0,13.023-1.904,17.808-5.713
			c4.785-3.809,7.756-9.438,8.907-16.88h2.657c-0.446,3.899-1.482,7.422-3.122,10.564c-1.642,3.148-3.745,5.806-6.315,7.976
			c-2.57,2.173-5.514,3.836-8.834,4.986c-3.327,1.148-6.937,1.727-10.835,1.727c-5.315,0.088-9.856-0.777-13.623-2.594
			c-3.763-1.814-6.843-4.339-9.235-7.575c-2.393-3.23-4.165-7.042-5.315-11.426c-1.151-4.388-1.729-9.105-1.729-14.156
			c0-5.671,0.844-10.721,2.525-15.149c1.681-4.43,3.899-8.175,6.647-11.233c2.742-3.056,5.912-5.382,9.5-6.976
			c3.589-1.594,7.331-2.393,11.23-2.393c5.318,0,9.901,1.021,13.758,3.059s6.997,4.739,9.434,8.105
			c2.438,3.368,4.209,7.223,5.318,11.564c1.105,4.339,1.573,8.858,1.395,13.553H74.073z M128.563,712.831
			c0-4.164-0.579-8.127-1.727-11.896c-1.154-3.764-2.854-7.063-5.116-9.901c-2.257-2.833-5.071-5.068-8.44-6.708
			c-3.369-1.639-7.265-2.458-11.694-2.458c-3.721,0-7.198,0.708-10.434,2.124c-3.233,1.419-6.069,3.48-8.503,6.18
			c-2.438,2.706-4.408,5.96-5.912,9.769c-1.51,3.809-2.396,8.105-2.664,12.891H128.563z"/>
		<path fill="#EBF5FF" d="M218.18,749.365h-3.085v-67.88h3.085v15.427h-0.666c0.621-3.085,1.597-4.478,2.926-6.782
			c1.326-2.302,3.101-4.122,5.315-5.852c2.214-1.727,5.644-2.959,8.702-3.887c3.055-0.935,8.407-1.254,11.493-1.163v2.657
			c-6.171-0.265-9.546,0.377-12.954,1.926c-3.411,1.552-6.62,3.679-8.837,6.379c-2.218,2.706-3.589,5.827-4.652,9.371
			c-1.061,3.543-1.326,7.177-1.326,10.896V749.365z"/>
		<path fill="#EBF5FF" d="M245.422,714.977c0-4.604,0.666-9.082,1.994-13.421c1.329-4.342,3.3-8.153,5.915-11.432
			c2.609-3.275,5.824-5.912,9.633-7.906c3.812-1.995,8.241-2.989,13.291-2.989c4.96,0,9.347,0.994,13.155,2.989
			c3.813,1.994,7.024,4.631,9.637,7.906c2.612,3.278,4.586,7.09,5.911,11.432c1.332,4.339,1.995,8.816,1.995,13.421
			c0,4.7-0.663,9.196-1.995,13.489c-1.325,4.3-3.299,8.108-5.911,11.43c-2.612,3.323-5.824,5.96-9.637,7.909
			c-3.809,1.949-8.237,2.926-13.288,2.926c-4.959,0-9.37-0.977-13.222-2.926c-3.856-1.949-7.068-4.586-9.636-7.909
			c-2.573-3.321-4.52-7.13-5.849-11.43C246.088,724.173,245.422,719.677,245.422,714.977z M248.079,714.977
			c0,4.345,0.6,8.509,1.796,12.492c1.196,3.989,2.989,7.509,5.382,10.57c2.392,3.056,5.336,5.49,8.837,7.307
			c3.498,1.817,7.555,2.725,12.161,2.725c4.517,0,8.527-0.907,12.028-2.725c3.496-1.816,6.445-4.251,8.835-7.307
			c2.393-3.062,4.188-6.581,5.385-10.57c1.196-3.983,1.792-8.147,1.792-12.492c0-4.252-0.596-8.371-1.792-12.36
			c-1.196-3.983-2.992-7.509-5.385-10.563c-2.39-3.056-5.339-5.515-8.835-7.377c-3.501-1.861-7.512-2.79-12.028-2.79
			c-4.606,0-8.663,0.929-12.161,2.79c-3.501,1.862-6.445,4.321-8.837,7.377c-2.393,3.055-4.186,6.58-5.382,10.563
			C248.679,706.605,248.079,710.725,248.079,714.977z"/>
		<path fill="#EBF5FF" d="M408.469,771.111c-3.146,2.79-7.291,4.183-12.432,4.183c-2.043,0-3.947-0.178-5.716-0.53v-9.703
			c0.445,0.088,0.816,0.154,1.13,0.199s0.639,0.066,0.994,0.066h2.393c2.479,0,4.167-0.688,5.05-2.061
			c0.886-1.374,1.332-3.833,1.332-7.374v-75.488h11.962v77.348C413.182,763.868,411.609,768.315,408.469,771.111z M401.22,668.044
			v-13.821h11.962v13.821H401.22z"/>
		<path fill="#EBF5FF" d="M424.119,700.634c1.416-4.381,3.544-8.184,6.376-11.411c2.839-3.227,6.334-5.77,10.504-7.626
			c4.164-1.856,8.943-2.79,14.349-2.79c5.496,0,10.305,0.934,14.424,2.79s7.597,4.399,10.435,7.626
			c2.833,3.228,4.96,7.03,6.376,11.411c1.416,4.375,2.127,9.085,2.127,14.126c0,5.062-0.711,9.763-2.127,14.113
			c-1.416,4.348-3.543,8.145-6.376,11.384c-2.838,3.239-6.315,5.773-10.435,7.59c-4.119,1.817-8.928,2.728-14.424,2.728
			c-5.405,0-10.185-0.91-14.349-2.728c-4.17-1.816-7.665-4.351-10.504-7.59c-2.832-3.239-4.96-7.036-6.376-11.384
			c-1.419-4.351-2.127-9.052-2.127-14.113C421.992,709.719,422.7,705.009,424.119,700.634z M435.614,725.827
			c1.106,3.227,2.637,5.921,4.583,8.087c1.953,2.166,4.234,3.82,6.847,4.969c2.615,1.151,5.381,1.724,8.304,1.724
			c2.926,0,5.695-0.572,8.311-1.724c2.612-1.148,4.894-2.803,6.843-4.969s3.474-4.86,4.586-8.087
			c1.105-3.228,1.66-6.916,1.66-11.067c0-4.152-0.555-7.841-1.66-11.07c-1.112-3.225-2.637-5.942-4.586-8.151
			c-1.949-2.208-4.23-3.89-6.843-5.04c-2.615-1.146-5.385-1.724-8.311-1.724c-2.923,0-5.688,0.578-8.304,1.724
			c-2.612,1.15-4.894,2.832-6.847,5.04c-1.946,2.209-3.477,4.927-4.583,8.151c-1.105,3.229-1.663,6.918-1.663,11.07
			C433.951,718.911,434.509,722.6,435.614,725.827z"/>
		<path fill="#EBF5FF" d="M508.506,680.403v14.487h0.244c2.763-5.583,6.138-9.702,10.124-12.359c3.722-2.48,8.37-3.725,13.954-3.725
			c0.443,0,0.841,0,1.196,0v11.962c-4.517,0-8.374,0.621-11.564,1.862c-3.188,1.241-5.762,3.056-7.708,5.447
			c-1.949,2.393-3.365,5.298-4.251,8.709c-0.886,3.41-1.332,7.327-1.332,11.76v30.568H497.21v-68.712H508.506z"/>
		<path fill="#EBF5FF" d="M554.186,680.403v10.898h0.24c4.683-8.328,12.104-12.495,22.265-12.495c4.634,0,8.497,0.624,11.592,1.862
			c3.089,1.241,5.589,2.971,7.497,5.183c1.91,2.218,3.254,4.851,4.025,7.909s1.156,6.445,1.156,10.166v45.188h-11.959v-46.517
			c0-4.255-1.232-7.617-3.709-10.101c-2.471-2.479-5.869-3.724-10.19-3.724c-3.447,0-6.424,0.533-8.937,1.597
			c-2.52,1.063-4.61,2.57-6.292,4.52c-1.675,1.949-2.935,4.23-3.77,6.843c-0.841,2.615-1.257,5.472-1.257,8.572v38.81h-11.962
			v-68.712H554.186z"/>
		<g>
			<path fill="#EBF5FF" d="M0.961,714.157c0-4.61,0.663-9.082,1.995-13.427c1.326-4.339,3.296-8.147,5.912-11.429
				c2.615-3.275,5.824-5.915,9.636-7.907c3.809-1.991,8.238-2.992,13.288-2.992c4.966,0,9.347,1.001,13.158,2.992
				c3.809,1.992,7.024,4.632,9.633,7.907c2.615,3.281,4.589,7.09,5.915,11.429c1.332,4.345,1.998,8.816,1.998,13.427
				c0,4.694-0.666,9.189-1.998,13.486c-1.326,4.3-3.299,8.105-5.915,11.432c-2.609,3.321-5.825,5.957-9.633,7.907
				c-3.812,1.946-8.238,2.923-13.291,2.923c-4.959,0-9.371-0.977-13.222-2.923c-3.856-1.95-7.069-4.586-9.636-7.907
				c-2.57-3.326-4.52-7.132-5.846-11.432C1.625,723.347,0.961,718.852,0.961,714.157z M3.619,714.157
				c0,4.339,0.6,8.503,1.796,12.492c1.196,3.983,2.989,7.509,5.381,10.564c2.393,3.055,5.333,5.495,8.834,7.31
				c3.501,1.816,7.554,2.724,12.161,2.724c4.52,0,8.527-0.907,12.028-2.724c3.499-1.814,6.448-4.255,8.838-7.31
				c2.393-3.056,4.188-6.581,5.384-10.564c1.196-3.989,1.793-8.153,1.793-12.492c0-4.255-0.597-8.377-1.793-12.36
				c-1.196-3.989-2.992-7.512-5.384-10.57c-2.39-3.055-5.339-5.514-8.838-7.376c-3.501-1.859-7.509-2.79-12.028-2.79
				c-4.607,0-8.66,0.931-12.161,2.79c-3.501,1.862-6.442,4.321-8.834,7.376c-2.393,3.059-4.185,6.581-5.381,10.57
				C4.219,705.78,3.619,709.902,3.619,714.157z"/>
			<path fill="#EBF5FF" d="M0.992,714.157h2.661l-0.033,60.44H0.961L0.992,714.157z"/>
		</g>
		<path fill="#EBF5FF" d="M389.067,701.758c-1.396-4.378-3.492-8.181-6.282-11.411c-2.796-3.224-6.219-5.767-10.278-7.626
			c-4.059-1.854-8.795-2.787-14.204-2.787c-5.324,0-10.461,0.952-14.574,2.787c-3.429,1.53-5.538,4.281-6.313,5.686l0.061-34.188
			h-11.983l-0.027,64.481c0,4.882,0.744,8.205,2.07,12.343c1.397,4.348,3.492,7.623,6.285,10.862
			c2.79,3.239,6.237,5.511,10.341,7.331c4.104,1.813,8.816,2.597,14.141,2.597c5.409,0,10.146-0.976,14.204-2.796
			c4.06-1.82,7.482-4.381,10.278-7.62c2.79-3.239,4.887-7.054,6.282-11.399c1.398-4.351,2.101-9.063,2.101-14.125
			C391.168,710.854,390.466,706.136,389.067,701.758z M377.536,726.95c-1.091,3.23-2.598,5.925-4.514,8.088
			c-1.916,2.166-4.161,3.823-6.734,4.972c-2.57,1.151-5.297,1.724-8.175,1.724c-2.874,0-5.602-0.572-8.175-1.724
			c-2.57-1.148-4.814-2.806-6.734-4.972c-1.919-2.163-3.423-4.857-4.514-8.088c-1.091-3.224-1.636-6.912-1.636-11.063
			c0-4.152,0.545-7.844,1.636-11.07c1.091-3.225,2.595-5.942,4.514-8.154c1.92-2.205,4.164-3.887,6.734-5.038
			c2.573-1.147,5.301-1.723,8.175-1.723c2.878,0,5.604,0.575,8.175,1.723c2.573,1.151,4.818,2.833,6.734,5.038
			c1.916,2.212,3.423,4.93,4.514,8.154c1.091,3.227,1.636,6.918,1.636,11.07C379.172,720.038,378.627,723.727,377.536,726.95z"/>
		<path fill="#EBF5FF" d="M203.165,713.952c0,4.604-0.666,9.078-1.992,13.42c-1.332,4.343-3.302,8.151-5.918,11.433
			c-2.612,3.271-5.824,5.911-9.633,7.906s-8.241,2.989-13.291,2.989c-4.959,0-9.347-0.994-13.159-2.989
			c-3.809-1.995-7.021-4.635-9.633-7.906c-2.615-3.281-4.586-7.09-5.915-11.433c-1.329-4.342-1.995-8.816-1.995-13.42
			c0-4.701,0.666-9.196,1.995-13.493c1.329-4.297,3.3-8.105,5.915-11.426c2.612-3.323,5.824-5.96,9.633-7.909
			c3.812-1.95,8.241-2.926,13.291-2.926c4.963,0,9.371,0.976,13.222,2.926c3.857,1.949,7.069,4.586,9.639,7.909
			c2.57,3.32,4.517,7.129,5.849,11.426C202.499,704.756,203.165,709.251,203.165,713.952z M200.504,713.952
			c0-4.345-0.597-8.507-1.796-12.496c-1.193-3.986-2.989-7.506-5.381-10.563c-2.393-3.059-5.333-5.496-8.838-7.311
			c-3.498-1.816-7.548-2.724-12.158-2.724c-4.52,0-8.527,0.907-12.029,2.724c-3.498,1.814-6.448,4.252-8.837,7.311
			c-2.393,3.058-4.185,6.577-5.384,10.563c-1.193,3.989-1.79,8.151-1.79,12.496c0,4.248,0.597,8.37,1.79,12.356
			c1.199,3.986,2.992,7.512,5.384,10.567c2.39,3.056,5.339,5.514,8.837,7.376c3.501,1.862,7.509,2.79,12.029,2.79
			c4.61,0,8.66-0.928,12.158-2.79c3.504-1.862,6.445-4.32,8.838-7.376s4.188-6.581,5.381-10.567
			C199.908,722.322,200.504,718.2,200.504,713.952z"/>
		<path fill="#EBF5FF" d="M203.165,713.952h-2.661v-59.763h2.661V713.952z"/>
		<g>
			<rect x="438.293" y="654.223" fill="#EBF5FF" width="11.966" height="13.821"/>
			<rect x="460.446" y="654.223" fill="#EBF5FF" width="11.962" height="13.821"/>
		</g>
	</g>
</g>
</svg>
