<?xml version="1.0" encoding="utf-8"?>
<!-- Generator: Adobe Illustrator 15.1.0, SVG Export Plug-In . SVG Version: 6.00 Build 0)  -->
<!DOCTYPE svg PUBLIC "-//W3C//DTD SVG 1.0//EN" "http://www.w3.org/TR/2001/REC-SVG-20010904/DTD/svg10.dtd">
<svg version="1.0" id="Layer_1" xmlns="http://www.w3.org/2000/svg" xmlns:xlink="http://www.w3.org/1999/xlink" x="0px" y="0px"
	 width="2048px" height="1200px" viewBox="0 0 2048 1200" enable-background="new 0 0 2048 1200" xml:space="preserve">
<g>
	<g>
		<g>
			<g>
				<path fill="#3A3A3E" d="M1010.07,730.408c123.09,0,222.861-100.068,222.861-223.519c0-123.447-99.771-223.517-222.861-223.517
					c-123.08,0-222.869,100.069-222.869,223.517C787.201,630.34,886.99,730.408,1010.07,730.408z"/>
			</g>
		</g>
	</g>
	<g>
		<g>
			<g>
				<path fill="#EBF5FF" d="M1010.148,203.655c-165.469,0-299.608,134.138-299.608,299.608
					c0,165.475,134.14,299.613,299.608,299.613s299.607-134.139,299.607-299.613
					C1309.756,337.793,1175.617,203.655,1010.148,203.655z M1187.094,599.318c-13.109,40.295-42.271,58.854-42.271,58.854
					c-29.15,14.48-149.785,14.49-149.785,14.49c-79.7,0-144.316-64.615-144.316-144.331c0-1.675,0.038-3.343,0.098-5.001
					c0.188-23.05,1.739-119.164,14.468-144.769c0,0,18.541-29.171,58.856-42.29c0,0,4.526-1.304,9.289,2.77
					c0,0,24.942,21.554,40.73,39.71c0,0,5.697,4.76,15.804,5.287c1.683-0.055,3.378-0.156,5.071-0.156c0.027,0,0.049,0,0.072,0
					c0.008,0,0.014,0,0.014,0c0.186,0,0.34,0.046,0.48,0.065c79.266,0.306,143.445,64.539,143.766,143.79
					c0.033,0.166,0.045,0.359,0.023,0.594c-0.014,0.13-0.014,0.244-0.023,0.371c-0.004,1.545-0.039,3.082-0.092,4.616
					c0.484,10.217,5.318,15.974,5.318,15.974c18.166,15.791,39.732,40.739,39.732,40.739
					C1188.4,594.789,1187.094,599.318,1187.094,599.318z"/>
				<path fill="#EBF5FF" d="M1119.275,537.222c0,16.746-13.594,30.327-30.344,30.327c-16.732,0-30.332-13.581-30.332-30.327
					s13.6-30.332,30.332-30.332C1105.682,506.89,1119.275,520.476,1119.275,537.222z"/>
			</g>
		</g>
	</g>
	<g>
		<path fill="#EBF5FF" d="M758.521,899.291c0.098,5.001,0.674,9.641,1.733,13.917c1.06,4.281,2.764,8.007,5.121,11.179
			c2.355,3.175,5.356,5.677,9.012,7.501c3.653,1.824,8.126,2.739,13.415,2.739c7.691,0,14.133-2.065,19.326-6.199
			c5.193-4.133,8.417-10.241,9.666-18.319h2.885c-0.484,4.231-1.609,8.051-3.388,11.465c-1.782,3.414-4.065,6.299-6.854,8.653
			c-2.79,2.36-5.984,4.162-9.588,5.412c-3.61,1.245-7.528,1.873-11.759,1.873c-5.769,0.096-10.697-0.843-14.784-2.812
			c-4.084-1.969-7.426-4.71-10.023-8.222c-2.596-3.508-4.519-7.646-5.769-12.403s-1.877-9.879-1.877-15.36
			c0-6.154,0.916-11.635,2.741-16.44c1.824-4.812,4.231-8.876,7.213-12.191c2.976-3.316,6.416-5.841,10.311-7.573
			c3.895-1.73,7.957-2.597,12.188-2.597c5.771,0,10.745,1.107,14.931,3.318c4.186,2.214,7.593,5.145,10.239,8.801
			c2.646,3.655,4.568,7.834,5.771,12.547c1.2,4.712,1.707,9.617,1.514,14.712H758.521z M817.657,896.406
			c0-4.519-0.628-8.822-1.874-12.909c-1.252-4.088-3.097-7.665-5.553-10.745c-2.449-3.074-5.503-5.501-9.159-7.283
			c-3.656-1.779-7.884-2.669-12.691-2.669c-4.039,0-7.812,0.77-11.325,2.307c-3.508,1.539-6.585,3.776-9.228,6.709
			c-2.646,2.934-4.784,6.466-6.416,10.599c-1.639,4.137-2.6,8.8-2.891,13.992H817.657z"/>
		<path fill="#EBF5FF" d="M914.917,936.054h-3.348v-73.668h3.348v16.742h-0.723c0.674-3.35,1.733-4.859,3.175-7.358
			c1.439-2.497,3.365-4.474,5.769-6.351c2.404-1.876,6.125-3.211,9.444-4.221c3.315-1.011,9.123-1.357,12.472-1.264v2.889
			c-6.697-0.292-10.359,0.405-14.058,2.086c-3.702,1.688-7.184,3.997-9.591,6.926c-2.406,2.938-3.895,6.325-5.049,10.171
			c-1.151,3.846-1.439,7.786-1.439,11.824V936.054z"/>
		<path fill="#EBF5FF" d="M944.481,898.735c0-5,0.723-9.856,2.165-14.568c1.442-4.712,3.581-8.846,6.42-12.403
			c2.831-3.558,6.32-6.419,10.454-8.58c4.137-2.166,8.943-3.249,14.424-3.249c5.383,0,10.145,1.083,14.278,3.249
			c4.136,2.161,7.622,5.022,10.457,8.58s4.977,7.691,6.416,12.403c1.445,4.712,2.164,9.568,2.164,14.568
			c0,5.098-0.719,9.977-2.164,14.637c-1.439,4.67-3.581,8.804-6.416,12.406c-2.835,3.604-6.321,6.469-10.457,8.582
			c-4.134,2.115-8.941,3.175-14.422,3.175c-5.383,0-10.17-1.06-14.35-3.175c-4.186-2.113-7.671-4.978-10.457-8.582
			c-2.793-3.603-4.905-7.736-6.348-12.406C945.205,908.712,944.481,903.833,944.481,898.735z M947.366,898.735
			c0,4.712,0.651,9.231,1.949,13.558c1.298,4.329,3.244,8.148,5.84,11.469c2.597,3.315,5.791,5.961,9.592,7.93
			c3.796,1.976,8.198,2.957,13.197,2.957c4.902,0,9.255-0.981,13.055-2.957c3.793-1.969,6.994-4.614,9.587-7.93
			c2.598-3.32,4.546-7.14,5.845-11.469c1.298-4.326,1.946-8.846,1.946-13.558c0-4.618-0.648-9.088-1.946-13.413
			c-1.299-4.327-3.247-8.15-5.845-11.467c-2.593-3.318-5.794-5.987-9.587-8.004c-3.8-2.021-8.152-3.028-13.055-3.028
			c-4.999,0-9.401,1.007-13.197,3.028c-3.801,2.017-6.995,4.686-9.592,8.004c-2.597,3.316-4.542,7.14-5.84,11.467
			C948.017,889.647,947.366,894.117,947.366,898.735z"/>
		<path fill="#EBF5FF" d="M1125.42,959.654c-3.414,3.027-7.914,4.542-13.492,4.542c-2.218,0-4.284-0.195-6.204-0.576v-10.529
			c0.484,0.092,0.887,0.163,1.227,0.217c0.341,0.044,0.693,0.071,1.08,0.071h2.597c2.69,0,4.521-0.745,5.479-2.236
			c0.961-1.491,1.446-4.16,1.446-8.006v-81.923h12.982v83.943C1130.535,951.793,1128.827,956.623,1125.42,959.654z M1117.553,847.8
			v-15.003h12.982V847.8H1117.553z"/>
		<path fill="#EBF5FF" d="M1142.405,883.166c1.537-4.752,3.846-8.878,6.919-12.384c3.081-3.499,6.874-6.259,11.4-8.276
			c4.519-2.015,9.705-3.024,15.571-3.024c5.965,0,11.185,1.01,15.654,3.024c4.47,2.018,8.244,4.777,11.324,8.276
			c3.074,3.506,5.383,7.632,6.92,12.384c1.536,4.752,2.309,9.86,2.309,15.334c0,5.49-0.772,10.596-2.309,15.317
			c-1.537,4.715-3.846,8.835-6.92,12.354c-3.08,3.513-6.854,6.263-11.324,8.234c-4.47,1.976-9.689,2.963-15.654,2.963
			c-5.866,0-11.053-0.987-15.571-2.963c-4.526-1.972-8.319-4.722-11.4-8.234c-3.073-3.519-5.382-7.639-6.919-12.354
			c-1.541-4.722-2.309-9.827-2.309-15.317C1140.097,893.026,1140.864,887.918,1142.405,883.166z M1154.881,910.507
			c1.199,3.507,2.861,6.43,4.973,8.777c2.12,2.352,4.596,4.146,7.431,5.396c2.838,1.25,5.84,1.871,9.012,1.871
			c3.176,0,6.182-0.621,9.02-1.871c2.835-1.249,5.311-3.044,7.426-5.396c2.116-2.348,3.771-5.271,4.978-8.777
			c1.199-3.498,1.802-7.501,1.802-12.007c0-4.51-0.603-8.513-1.802-12.014c-1.207-3.5-2.861-6.449-4.978-8.851
			c-2.115-2.396-4.591-4.218-7.426-5.467c-2.838-1.246-5.844-1.871-9.02-1.871c-3.172,0-6.174,0.625-9.012,1.871
			c-2.835,1.249-5.311,3.071-7.431,5.467c-2.111,2.401-3.773,5.351-4.973,8.851c-1.201,3.501-1.806,7.504-1.806,12.014
			C1153.075,903.006,1153.68,907.009,1154.881,910.507z"/>
		<path fill="#EBF5FF" d="M1233.987,861.214v15.72h0.266c2.998-6.06,6.661-10.526,10.986-13.411
			c4.039-2.694,9.085-4.041,15.144-4.041c0.481,0,0.913,0,1.299,0v12.982c-4.901,0-9.088,0.674-12.55,2.021
			c-3.461,1.348-6.253,3.315-8.365,5.912c-2.115,2.596-3.652,5.745-4.614,9.447c-0.961,3.701-1.445,7.956-1.445,12.764v33.175
			h-12.979v-74.568H1233.987z"/>
		<path fill="#EBF5FF" d="M1283.563,861.214v11.824h0.262c5.081-9.037,13.136-13.557,24.163-13.557
			c5.029,0,9.222,0.674,12.579,2.021c3.352,1.348,6.066,3.221,8.136,5.625c2.074,2.406,3.531,5.265,4.37,8.58
			c0.837,3.32,1.255,6.999,1.255,11.033v49.042h-12.979v-50.479c0-4.619-1.339-8.271-4.026-10.966
			c-2.682-2.69-6.369-4.039-11.059-4.039c-3.741,0-6.973,0.576-9.7,1.734c-2.733,1.15-5.003,2.785-6.827,4.901
			c-1.819,2.115-3.186,4.595-4.091,7.427c-0.913,2.838-1.364,5.938-1.364,9.306v42.116h-12.982v-74.568H1283.563z"/>
		<g>
			<path fill="#EBF5FF" d="M679.175,897.843c0-5,0.719-9.856,2.165-14.568c1.439-4.709,3.578-8.847,6.416-12.406
				c2.839-3.553,6.321-6.416,10.458-8.582c4.133-2.161,8.94-3.243,14.421-3.243c5.389,0,10.144,1.082,14.281,3.243
				c4.134,2.166,7.623,5.029,10.455,8.582c2.838,3.56,4.98,7.697,6.419,12.406c1.446,4.712,2.168,9.568,2.168,14.568
				c0,5.099-0.723,9.977-2.168,14.641c-1.438,4.663-3.581,8.797-6.419,12.403c-2.832,3.607-6.321,6.465-10.455,8.58
				c-4.137,2.116-8.94,3.176-14.425,3.176c-5.382,0-10.17-1.06-14.349-3.176c-4.186-2.115-7.671-4.973-10.458-8.58
				c-2.789-3.606-4.905-7.74-6.344-12.403C679.894,907.819,679.175,902.941,679.175,897.843z M682.059,897.843
				c0,4.713,0.65,9.23,1.949,13.558c1.298,4.326,3.244,8.149,5.841,11.469c2.597,3.316,5.788,5.961,9.587,7.93
				c3.8,1.972,8.198,2.959,13.198,2.959c4.905,0,9.255-0.987,13.054-2.959c3.796-1.969,6.998-4.613,9.592-7.93
				c2.596-3.319,4.545-7.143,5.843-11.469c1.298-4.327,1.945-8.845,1.945-13.558c0-4.614-0.647-9.087-1.945-13.414
				c-1.298-4.326-3.248-8.152-5.843-11.469c-2.594-3.316-5.795-5.984-9.592-8.005c-3.799-2.021-8.149-3.028-13.054-3.028
				c-5,0-9.398,1.008-13.198,3.028c-3.8,2.021-6.991,4.688-9.587,8.005s-4.542,7.143-5.841,11.469
				C682.709,888.756,682.059,893.229,682.059,897.843z"/>
			<path fill="#EBF5FF" d="M679.208,897.843h2.887l-0.036,65.595h-2.884L679.208,897.843z"/>
		</g>
		<path fill="#EBF5FF" d="M1104.364,884.386c-1.515-4.747-3.791-8.878-6.819-12.38c-3.034-3.503-6.748-6.263-11.154-8.28
			c-4.403-2.012-9.545-3.021-15.415-3.021c-5.777,0-11.354,1.033-15.817,3.021c-3.722,1.661-6.01,4.65-6.851,6.174l0.065-37.103
			h-13.006l-0.028,69.98c0,5.297,0.807,8.9,2.246,13.394c1.517,4.717,3.79,8.271,6.821,11.786c3.028,3.516,6.77,5.98,11.223,7.957
			c4.454,1.971,9.569,2.818,15.347,2.818c5.87,0,11.012-1.06,15.415-3.032c4.406-1.975,8.12-4.758,11.154-8.272
			c3.028-3.516,5.305-7.652,6.819-12.371c1.518-4.719,2.278-9.837,2.278-15.327C1106.643,894.258,1105.882,889.142,1104.364,884.386
			z M1091.849,911.731c-1.184,3.501-2.818,6.428-4.897,8.776c-2.081,2.348-4.517,4.146-7.31,5.396
			c-2.789,1.249-5.749,1.871-8.872,1.871c-3.119,0-6.078-0.622-8.872-1.871c-2.788-1.25-5.225-3.048-7.308-5.396
			c-2.083-2.349-3.715-5.275-4.899-8.776c-1.184-3.499-1.775-7.502-1.775-12.012c0-4.506,0.592-8.512,1.775-12.011
			c1.185-3.499,2.816-6.449,4.899-8.849c2.083-2.397,4.52-4.219,7.308-5.469c2.794-1.249,5.753-1.87,8.872-1.87
			c3.123,0,6.083,0.621,8.872,1.87c2.793,1.25,5.229,3.071,7.31,5.469c2.079,2.399,3.714,5.35,4.897,8.849s1.775,7.505,1.775,12.011
			C1093.624,904.229,1093.032,908.232,1091.849,911.731z"/>
		<path fill="#EBF5FF" d="M898.622,897.62c0,5-0.723,9.853-2.161,14.568c-1.446,4.709-3.584,8.843-6.423,12.403
			c-2.835,3.556-6.321,6.419-10.455,8.581c-4.134,2.165-8.944,3.247-14.424,3.247c-5.382,0-10.144-1.082-14.281-3.247
			c-4.133-2.162-7.619-5.025-10.455-8.581c-2.838-3.561-4.977-7.694-6.419-12.403c-1.442-4.716-2.165-9.568-2.165-14.568
			c0-5.099,0.723-9.977,2.165-14.641c1.442-4.663,3.581-8.797,6.419-12.403c2.835-3.607,6.321-6.469,10.455-8.584
			c4.137-2.112,8.944-3.172,14.424-3.172c5.386,0,10.17,1.06,14.35,3.172c4.186,2.115,7.672,4.977,10.461,8.584
			c2.79,3.606,4.902,7.74,6.348,12.403C897.899,887.644,898.622,892.521,898.622,897.62z M895.734,897.62
			c0-4.713-0.648-9.232-1.949-13.562c-1.295-4.322-3.244-8.146-5.841-11.465c-2.597-3.316-5.788-5.964-9.591-7.934
			c-3.796-1.968-8.191-2.955-13.195-2.955c-4.905,0-9.254,0.987-13.054,2.955c-3.797,1.97-6.998,4.617-9.591,7.934
			c-2.596,3.319-4.542,7.143-5.843,11.465c-1.295,4.329-1.943,8.849-1.943,13.562c0,4.614,0.647,9.087,1.943,13.411
			c1.301,4.329,3.247,8.152,5.843,11.472c2.593,3.314,5.794,5.983,9.591,8.005c3.8,2.018,8.149,3.028,13.054,3.028
			c5.003,0,9.398-1.011,13.195-3.028c3.803-2.021,6.995-4.69,9.591-8.005c2.597-3.319,4.545-7.143,5.841-11.472
			C895.086,906.707,895.734,902.234,895.734,897.62z"/>
		<path fill="#EBF5FF" d="M898.622,897.62h-2.887v-63.729h2.887V897.62z"/>
		<g>
			<rect x="1157.787" y="832.797" fill="#EBF5FF" width="12.985" height="15.003"/>
			<rect x="1181.829" y="832.797" fill="#EBF5FF" width="12.982" height="15.003"/>
		</g>
	</g>
</g>
</svg>
