<?xml version="1.0" encoding="utf-8"?>
<!-- Generator: Adobe Illustrator 15.1.0, SVG Export Plug-In . SVG Version: 6.00 Build 0)  -->
<!DOCTYPE svg PUBLIC "-//W3C//DTD SVG 1.1//EN" "http://www.w3.org/Graphics/SVG/1.1/DTD/svg11.dtd">
<svg version="1.1" xmlns="http://www.w3.org/2000/svg" xmlns:xlink="http://www.w3.org/1999/xlink" x="0px" y="0px"
	 width="73.111px" height="73.11px" viewBox="0 0 73.111 73.11" enable-background="new 0 0 73.111 73.11" xml:space="preserve">
<g id="Layer_1">
	<g>
		<g>
			<g>
				<g>
					<g>
						
							<path fill="#3A3A3E" stroke="#EBF5FF" stroke-width="9.1105" stroke-linecap="round" stroke-linejoin="round" stroke-miterlimit="10" d="
							M36.555,68.556c17.674,0,32-14.326,32-32c0-17.675-14.326-32.001-32-32.001c-17.672,0-32,14.326-32,32.001
							C4.555,54.229,18.883,68.556,36.555,68.556z"/>
					</g>
				</g>
			</g>
			<g>
				<g>
					
						<polyline fill="none" stroke="#EBF5FF" stroke-width="9.1103" stroke-linecap="round" stroke-linejoin="round" stroke-miterlimit="10" points="
						25.889,25.889 36.555,36.556 25.889,47.222 					"/>
				</g>
				<g>
					
						<polyline fill="none" stroke="#EBF5FF" stroke-width="9.1103" stroke-linecap="round" stroke-linejoin="round" stroke-miterlimit="10" points="
						47.222,47.222 36.555,36.556 47.222,25.889 					"/>
				</g>
			</g>
		</g>
	</g>
	<g display="none">
		<g display="inline">
			<g>
				<g>
					<g>
						
							<path fill="#3A3A3E" stroke="#EBF5FF" stroke-width="9.1105" stroke-linecap="round" stroke-linejoin="round" stroke-miterlimit="10" d="
							M36.555,4.555c-17.673,0-32,14.326-32,32c0,17.675,14.327,32.001,32,32.001c17.674,0,32-14.326,32-32.001
							C68.555,18.881,54.229,4.555,36.555,4.555z"/>
					</g>
				</g>
			</g>
			<g>
				<polyline fill="none" stroke="#96C8FF" stroke-width="1.2317" stroke-miterlimit="10" points="41.533,47.222 27.311,36.555 
					41.533,25.889 				"/>
				
					<polyline fill="none" stroke="#EBF5FF" stroke-width="9.1105" stroke-linecap="round" stroke-linejoin="round" stroke-miterlimit="10" points="
					41.533,47.222 27.311,36.555 41.533,25.889 				"/>
			</g>
		</g>
	</g>
	<g display="none">
		<g display="inline">
			<g>
				<g>
					<g>
						
							<path fill="#3A3A3E" stroke="#EBF5FF" stroke-width="9.1105" stroke-linecap="round" stroke-linejoin="round" stroke-miterlimit="10" d="
							M68.555,36.556c0-17.675-14.326-32.001-31.999-32.001c-17.674,0-32.001,14.326-32.001,32.001c0,17.673,14.327,32,32.001,32
							C54.229,68.556,68.555,54.229,68.555,36.556z"/>
					</g>
				</g>
			</g>
			<g>
				<polyline fill="none" stroke="#96C8FF" stroke-width="1.2317" stroke-miterlimit="10" points="25.889,41.532 36.556,27.31 
					47.222,41.532 				"/>
				
					<polyline fill="none" stroke="#EBF5FF" stroke-width="9.1105" stroke-linecap="round" stroke-linejoin="round" stroke-miterlimit="10" points="
					25.889,41.532 36.556,27.31 47.222,41.532 				"/>
			</g>
		</g>
	</g>
	<g display="none">
		<g display="inline">
			<g>
				<g>
					<g>
						
							<path fill="#3A3A3E" stroke="#EBF5FF" stroke-width="9.1105" stroke-linecap="round" stroke-linejoin="round" stroke-miterlimit="10" d="
							M36.555,68.556c17.674,0,32-14.326,32-32c0-17.675-14.326-32.001-32-32.001c-17.672,0-32,14.326-32,32.001
							C4.555,54.229,18.883,68.556,36.555,68.556z"/>
					</g>
				</g>
			</g>
			<g>
				<polyline fill="none" stroke="#96C8FF" stroke-width="1.2317" stroke-miterlimit="10" points="31.579,25.889 45.801,36.556 
					31.579,47.222 				"/>
				
					<polyline fill="none" stroke="#EBF5FF" stroke-width="9.1105" stroke-linecap="round" stroke-linejoin="round" stroke-miterlimit="10" points="
					31.579,25.889 45.801,36.556 31.579,47.222 				"/>
			</g>
		</g>
	</g>
	<g display="none">
		<g display="inline">
			<g>
				<g>
					<g>
						
							<path fill="#3A3A3E" stroke="#EBF5FF" stroke-width="9.1103" stroke-linecap="round" stroke-linejoin="round" stroke-miterlimit="10" d="
							M4.555,36.555c0,17.674,14.327,32,32,32c17.674,0,32-14.326,32-32c0-17.672-14.326-31.999-32-31.999
							C18.882,4.556,4.555,18.883,4.555,36.555z"/>
					</g>
				</g>
			</g>
			<g>
				<polyline fill="none" stroke="#96C8FF" stroke-width="1.2317" stroke-miterlimit="10" points="47.222,31.578 36.555,45.801 
					25.889,31.578 				"/>
				
					<polyline fill="none" stroke="#EBF5FF" stroke-width="9.1103" stroke-linecap="round" stroke-linejoin="round" stroke-miterlimit="10" points="
					47.222,31.578 36.555,45.801 25.889,31.578 				"/>
			</g>
		</g>
	</g>
	<g display="none">
		<g display="inline">
			<g>
				<g>
					<g>
						
							<path fill="#3A3A3E" stroke="#EBF5FF" stroke-width="9.1103" stroke-linecap="round" stroke-linejoin="round" stroke-miterlimit="10" d="
							M4.555,36.555c0,17.674,14.327,32,32,32c17.674,0,32-14.326,32-32c0-17.673-14.326-31.999-32-31.999
							C18.882,4.556,4.555,18.882,4.555,36.555z"/>
					</g>
				</g>
			</g>
			<g>
				<g>
					
						<rect x="22.086" y="27.446" fill="#EBF5FF" stroke="#EBF5FF" stroke-width="8" stroke-linejoin="round" stroke-miterlimit="10" width="29" height="19"/>
				</g>
				<g>
					<polyline fill="none" stroke="#3A3A3E" stroke-width="4.3546" stroke-linejoin="round" stroke-miterlimit="10" points="
						55.543,24.252 36.343,42.029 17.143,24.252 					"/>
				</g>
			</g>
		</g>
	</g>
	<g display="none">
		<g display="inline">
			<g>
				<g>
					
						<path fill="#3A3A3E" stroke="#EBF5FF" stroke-width="9.1103" stroke-linecap="round" stroke-linejoin="round" stroke-miterlimit="10" d="
						M4.555,36.556c0,17.674,14.326,31.998,31.999,31.998c17.674,0,32.001-14.324,32.001-31.998S54.228,4.557,36.554,4.557
						C18.881,4.557,4.555,18.882,4.555,36.556z"/>
				</g>
			</g>
		</g>
		<path display="inline" fill="#EBF5FF" d="M34.237,38.579c0,0,0.134,0.137-2.799-2.795c-2.931-2.935,0.218-5.512,0.218-5.512
			c1.865-2.069,1.177-4.287,1.177-4.287s-1.296-2.13-4.573-5.938c-2.628-3.056-5.862,0.336-5.862,0.336s-8.519,7.251-0.674,19.491
			c0,0,1.188,2.24,5.054,6.105c4.125,3.857,6.097,5.043,6.097,5.043c12.238,7.846,19.478-0.686,19.478-0.686s3.387-3.238,0.33-5.867
			c-3.807-3.277-5.939-4.574-5.939-4.574s-2.22-0.691-4.289,1.172c0,0-2.578,3.15-5.513,0.217
			C34.009,38.353,34.237,38.579,34.237,38.579z"/>
	</g>
	<g display="none">
		<g display="inline">
			<g>
				<g>
					<g>
						
							<path fill="#3A3A3E" stroke="#EBF5FF" stroke-width="9.1103" stroke-linecap="round" stroke-linejoin="round" stroke-miterlimit="10" d="
							M36.555,68.555c17.674,0,32-14.326,32-32c0-17.673-14.326-31.999-32-31.999c-17.672,0-32,14.326-32,31.999
							C4.555,54.229,18.883,68.555,36.555,68.555z"/>
					</g>
				</g>
			</g>
			<g>
				<g>
					<polyline fill="none" stroke="#009999" stroke-width="1.0667" stroke-miterlimit="10" points="52.555,25.889 31.222,47.222 
						20.555,36.555 					"/>
					
						<polyline fill="none" stroke="#EBF5FF" stroke-width="9.1103" stroke-linecap="round" stroke-linejoin="round" stroke-miterlimit="10" points="
						52.555,25.889 31.222,47.222 20.555,36.555 					"/>
				</g>
			</g>
		</g>
	</g>
	<g display="none">
		<circle display="inline" fill="#4A4A4E" cx="36.478" cy="36.6" r="28.335"/>
		<g display="inline">
			<g>
				<g>
					
						<path fill="#3A3A3E" stroke="#EBF5FF" stroke-width="9.1103" stroke-linecap="round" stroke-linejoin="round" stroke-miterlimit="10" d="
						M36.555,68.555c17.674,0,32-14.326,32-32c0-17.673-14.326-31.999-32-31.999c-17.672,0-32,14.326-32,31.999
						C4.555,54.229,18.883,68.555,36.555,68.555z"/>
				</g>
			</g>
		</g>
		<g display="inline">
			<g>
				<g>
					<path fill="#EBF5FF" d="M36.555,4.555c-17.673,0-32,14.328-32,32.001s14.327,32,32,32c17.674,0,32-14.327,32-32
						S54.229,4.555,36.555,4.555z M55.453,46.814c-1.399,4.304-4.515,6.285-4.515,6.285c-3.113,1.547-15.996,1.549-15.996,1.549
						c-8.513,0-15.415-6.901-15.415-15.416c0-0.179,0.004-0.356,0.011-0.534c0.019-2.462,0.185-12.727,1.545-15.462
						c0,0,1.979-3.115,6.285-4.518c0,0,0.484-0.139,0.991,0.297c0,0,2.664,2.303,4.352,4.241c0,0,0.608,0.507,1.688,0.565
						c0.18-0.006,0.361-0.018,0.543-0.018c0.002,0,0.004,0,0.008,0h0.001c0.019,0,0.036,0.006,0.05,0.007
						c8.467,0.032,15.322,6.893,15.355,15.357c0.004,0.018,0.006,0.039,0.003,0.063c-0.001,0.014-0.001,0.026-0.003,0.039
						c0,0.165-0.003,0.33-0.009,0.495c0.05,1.091,0.567,1.705,0.567,1.705c1.94,1.688,4.243,4.352,4.243,4.352
						C55.592,46.33,55.453,46.814,55.453,46.814z"/>
					<circle fill="#EBF5FF" cx="44.971" cy="39.422" r="3.24"/>
				</g>
			</g>
		</g>
	</g>
</g>
<g id="Layer_2" display="none">
	<g display="inline">
		<g>
			<g>
				<g>
					<g>
						<g>
							<g>
								<path fill="#EBF5FF" d="M36.555,4.555c-17.673,0-32,14.327-32,32.001s14.327,32,32,32c17.674,0,32-14.326,32-32
									S54.229,4.555,36.555,4.555z"/>
							</g>
						</g>
					</g>
				</g>
				<g>
					<polyline fill="none" stroke="#96C8FF" stroke-width="1.2317" stroke-miterlimit="10" points="41.533,47.222 27.311,36.556 
						41.533,25.889 					"/>
					
						<polyline fill="none" stroke="#96C8FF" stroke-width="9.1105" stroke-linecap="round" stroke-linejoin="round" stroke-miterlimit="10" points="
						41.533,47.222 27.311,36.556 41.533,25.889 					"/>
				</g>
			</g>
		</g>
		<g>
			<g>
				<g>
					<g>
						<g>
							<g>
								<path fill="#EBF5FF" d="M4.555,36.556c0,17.674,14.327,32,32,32c17.674,0,32-14.326,32-32c0-17.673-14.326-32.001-32-32.001
									C18.882,4.555,4.555,18.883,4.555,36.556z"/>
							</g>
						</g>
					</g>
				</g>
				<g>
					<polyline fill="none" stroke="#96C8FF" stroke-width="1.2317" stroke-miterlimit="10" points="47.221,31.579 36.555,45.802 
						25.888,31.579 					"/>
					
						<polyline fill="none" stroke="#96C8FF" stroke-width="9.1105" stroke-linecap="round" stroke-linejoin="round" stroke-miterlimit="10" points="
						47.221,31.579 36.555,45.802 25.888,31.579 					"/>
				</g>
			</g>
		</g>
		<g>
			<g>
				<g>
					<g>
						<g>
							<g>
								<path fill="#EBF5FF" d="M36.555,68.556c17.674,0,32-14.326,32-32s-14.326-32.001-32-32.001c-17.672,0-32,14.327-32,32.001
									S18.882,68.556,36.555,68.556z"/>
							</g>
						</g>
					</g>
				</g>
				<g>
					<polyline fill="none" stroke="#96C8FF" stroke-width="1.2317" stroke-miterlimit="10" points="31.578,25.889 45.801,36.556 
						31.578,47.222 					"/>
					
						<polyline fill="none" stroke="#96C8FF" stroke-width="9.1105" stroke-linecap="round" stroke-linejoin="round" stroke-miterlimit="10" points="
						31.578,25.889 45.801,36.556 31.578,47.222 					"/>
				</g>
			</g>
		</g>
		<g>
			<g>
				<g>
					<g>
						<g>
							<g>
								<path fill="#EBF5FF" d="M68.555,36.556c0-17.674-14.326-32.001-32-32.001c-17.674,0-32.001,14.327-32.001,32.001
									c0,17.673,14.327,32,32.001,32C54.229,68.556,68.555,54.229,68.555,36.556z"/>
							</g>
						</g>
					</g>
				</g>
				<g>
					<polyline fill="none" stroke="#96C8FF" stroke-width="1.2317" stroke-miterlimit="10" points="25.889,41.532 36.556,27.311 
						47.222,41.532 					"/>
					
						<polyline fill="none" stroke="#96C8FF" stroke-width="9.1105" stroke-linecap="round" stroke-linejoin="round" stroke-miterlimit="10" points="
						25.889,41.532 36.556,27.311 47.222,41.532 					"/>
				</g>
			</g>
		</g>
		<g>
			<g>
				<g>
					<g>
						<g>
							<g>
								<path fill="#EBF5FF" d="M4.555,36.556c0,17.674,14.327,32,32,32c17.674,0,32-14.326,32-32c0-17.673-14.326-32.001-32-32.001
									C18.882,4.555,4.555,18.883,4.555,36.556z"/>
							</g>
						</g>
					</g>
				</g>
				<g>
					<g>
						
							<rect x="22.086" y="28.446" fill="#96C8FF" stroke="#96C8FF" stroke-width="8" stroke-linejoin="round" stroke-miterlimit="10" width="29" height="19"/>
					</g>
					<g>
						<polyline fill="#96C8FF" points="55.756,24.253 36.556,42.03 17.355,24.253 						"/>
						<polyline fill="none" stroke="#EBF5FF" stroke-width="4.3547" stroke-linejoin="round" stroke-miterlimit="10" points="
							55.756,24.253 36.556,42.03 17.355,24.253 						"/>
					</g>
				</g>
			</g>
		</g>
		<g>
			<g>
				<g>
					<g>
						<g>
							<path fill="#EBF5FF" d="M4.555,36.555c0,17.674,14.327,32,32,32c17.673,0,32-14.326,32-32s-14.327-31.999-32-31.999
								C18.882,4.556,4.555,18.881,4.555,36.555z"/>
						</g>
					</g>
				</g>
			</g>
			<path fill="#96C8FF" d="M34.61,38.578c0,0,0.134,0.137-2.798-2.795c-2.931-2.934,0.217-5.512,0.217-5.512
				c1.865-2.068,1.177-4.287,1.177-4.287s-1.295-2.13-4.573-5.938c-2.628-3.056-5.862,0.336-5.862,0.336s-8.519,7.251-0.674,19.49
				c0,0,1.187,2.24,5.053,6.106c4.126,3.857,6.097,5.042,6.097,5.042c12.238,7.846,19.478-0.685,19.478-0.685
				s3.386-3.238,0.33-5.868c-3.808-3.276-5.939-4.574-5.939-4.574s-2.221-0.691-4.289,1.173c0,0-2.578,3.149-5.514,0.217
				C34.383,38.352,34.61,38.578,34.61,38.578z"/>
		</g>
		<g>
			<circle fill="#96C8FF" cx="36.478" cy="36.6" r="28.335"/>
			<g>
				<g>
					<g>
						<path fill="#EBF5FF" d="M36.555,4.555c-17.673,0-32,14.328-32,32.001s14.327,32,32,32c17.674,0,32-14.327,32-32
							S54.229,4.555,36.555,4.555z M55.453,46.814c-1.399,4.304-4.515,6.285-4.515,6.285c-3.113,1.547-15.996,1.549-15.996,1.549
							c-8.513,0-15.415-6.901-15.415-15.416c0-0.179,0.004-0.356,0.011-0.534c0.019-2.462,0.185-12.727,1.545-15.462
							c0,0,1.979-3.115,6.285-4.518c0,0,0.484-0.139,0.992,0.297c0,0,2.664,2.303,4.351,4.241c0,0,0.608,0.507,1.687,0.565
							c0.181-0.006,0.361-0.018,0.543-0.018c0.001,0,0.004,0,0.007,0h0.001c0.019,0,0.036,0.006,0.05,0.007
							c8.466,0.032,15.322,6.893,15.355,15.357c0.004,0.018,0.006,0.039,0.003,0.063c-0.001,0.014-0.001,0.026-0.003,0.039
							c0,0.165-0.003,0.33-0.009,0.495c0.05,1.091,0.567,1.705,0.567,1.705c1.94,1.688,4.243,4.352,4.243,4.352
							C55.592,46.33,55.453,46.814,55.453,46.814z"/>
						<circle fill="#EBF5FF" cx="44.971" cy="39.422" r="3.24"/>
					</g>
				</g>
			</g>
		</g>
	</g>
</g>
</svg>
