<?xml version="1.0" encoding="utf-8"?>
<!-- Generator: Adobe Illustrator 15.1.0, SVG Export Plug-In . SVG Version: 6.00 Build 0)  -->
<!DOCTYPE svg PUBLIC "-//W3C//DTD SVG 1.0//EN" "http://www.w3.org/TR/2001/REC-SVG-20010904/DTD/svg10.dtd">
<svg version="1.0" id="Layer_3" xmlns="http://www.w3.org/2000/svg" xmlns:xlink="http://www.w3.org/1999/xlink" x="0px" y="0px"
	 width="65px" height="65px" viewBox="0 0 65 65" enable-background="new 0 0 65 65" xml:space="preserve">
<g>
	<g>
		<g>
			<g>
				<g>
					<path fill="#EBF5FF" d="M32.593,64.5c17.623,0,31.907-14.326,31.907-32c0-17.674-14.284-32-31.907-32
						c-17.621,0-31.907,14.326-31.907,32C0.687,50.174,14.973,64.5,32.593,64.5z"/>
				</g>
			</g>
		</g>
		<g>
			<g>
				
					<polyline fill="none" stroke="#333333" stroke-width="9.097" stroke-linecap="round" stroke-linejoin="round" stroke-miterlimit="10" points="
					43.229,43.167 32.427,32.5 43.229,21.833 				"/>
				<polyline fill="none" stroke="#333333" stroke-width="0.9985" stroke-miterlimit="10" points="43.229,43.167 32.427,32.5 
					43.229,21.833 				"/>
			</g>
			<g>
				
					<polyline fill="none" stroke="#333333" stroke-width="9.097" stroke-linecap="round" stroke-linejoin="round" stroke-miterlimit="10" points="
					21.625,21.833 32.427,32.5 21.625,43.167 				"/>
				<polyline fill="none" stroke="#333333" stroke-width="0.9985" stroke-miterlimit="10" points="21.625,21.833 32.427,32.5 
					21.625,43.167 				"/>
			</g>
		</g>
	</g>
</g>
<g>
	<g>
		<g>
			<g>
				<g>
					<path fill="#EBF5FF" d="M32.593,0.5c-17.621,0-31.907,14.326-31.907,32c0,17.675,14.286,32.001,31.907,32.001
						C50.216,64.5,64.5,50.174,64.5,32.5C64.5,14.826,50.216,0.5,32.593,0.5z"/>
				</g>
			</g>
		</g>
		<g>
			<polyline fill="none" stroke="#96C8FF" stroke-width="1.2299" stroke-miterlimit="10" points="37.557,43.167 23.376,32.5 
				37.557,21.833 			"/>
			
				<polyline fill="none" stroke="#3A3A3E" stroke-width="9.0971" stroke-linecap="round" stroke-linejoin="round" stroke-miterlimit="10" points="
				37.557,43.167 23.376,32.5 37.557,21.833 			"/>
		</g>
	</g>
</g>
<g display="none">
	<g display="inline">
		<g>
			<g>
				<g>
					<path fill="#EBF5FF" d="M0.687,32.5c0,17.674,14.286,31.999,31.907,31.999C50.216,64.499,64.5,50.173,64.5,32.5
						c0-17.672-14.284-31.999-31.907-31.999C14.972,0.501,0.687,14.827,0.687,32.5z"/>
				</g>
			</g>
		</g>
		<g>
			<g>
				
					<rect x="18.125" y="23.391" fill="#3A3A3E" stroke="#3A3A3E" stroke-width="8" stroke-linejoin="round" stroke-miterlimit="10" width="29" height="19"/>
			</g>
			<g>
				<polyline fill="none" stroke="#EBF5FF" stroke-width="4.3482" stroke-linejoin="round" stroke-miterlimit="10" points="
					51.526,20.197 32.382,37.974 13.238,20.197 				"/>
			</g>
		</g>
	</g>
</g>
<g display="none">
	<g display="inline">
		<g>
			<g>
				<path fill="#EBF5FF" d="M0.5,32.501c0,17.673,14.285,31.998,31.906,31.998c17.622,0,31.907-14.324,31.907-31.998
					S50.028,0.502,32.406,0.502C14.785,0.502,0.5,14.828,0.5,32.501z"/>
			</g>
		</g>
	</g>
	<path display="inline" fill="#3A3A3E" d="M30.282,34.524c0,0,0.133,0.137-2.791-2.795c-2.922-2.935,0.217-5.512,0.217-5.512
		c1.86-2.069,1.173-4.287,1.173-4.287s-1.292-2.13-4.56-5.937c-2.62-3.056-5.845,0.336-5.845,0.336s-8.494,7.25-0.672,19.49
		c0,0,1.184,2.24,5.039,6.105c4.113,3.857,6.079,5.043,6.079,5.043c12.203,7.846,19.421-0.686,19.421-0.686s3.376-3.238,0.329-5.867
		c-3.796-3.277-5.923-4.574-5.923-4.574s-2.213-0.691-4.276,1.172c0,0-2.57,3.15-5.497,0.217
		C30.055,34.297,30.282,34.524,30.282,34.524z"/>
</g>
<g display="none">
	<g display="inline">
		<g>
			<g>
				<g>
					<path fill="#EBF5FF" d="M32.593,64.499C50.216,64.499,64.5,50.173,64.5,32.5c0-17.672-14.284-31.999-31.907-31.999
						C14.973,0.501,0.687,14.827,0.687,32.5C0.687,50.173,14.973,64.499,32.593,64.499z"/>
				</g>
			</g>
		</g>
		<g>
			<g>
				<polyline fill="none" stroke="#009999" stroke-width="1.0651" stroke-miterlimit="10" points="48.547,21.833 27.275,43.167 
					16.64,32.5 				"/>
				
					<polyline fill="none" stroke="#3A3A3E" stroke-width="9.097" stroke-linecap="round" stroke-linejoin="round" stroke-miterlimit="10" points="
					48.547,21.833 27.275,43.167 16.64,32.5 				"/>
			</g>
		</g>
	</g>
</g>
<g display="none">
	<g display="inline">
		<g>
			<g>
				<g>
					<path fill="#EBF5FF" d="M64.5,32.5c0-17.672-14.284-32-31.906-32c-17.623,0-31.908,14.327-31.908,32
						c0,17.673,14.285,32,31.908,32C50.216,64.5,64.5,50.174,64.5,32.5z"/>
				</g>
			</g>
		</g>
		<g>
			<polyline fill="none" stroke="#96C8FF" stroke-width="1.2299" stroke-miterlimit="10" points="21.958,37.477 32.593,23.256 
				43.229,37.477 			"/>
			
				<polyline fill="none" stroke="#3A3A3E" stroke-width="9.0971" stroke-linecap="round" stroke-linejoin="round" stroke-miterlimit="10" points="
				21.958,37.477 32.593,23.256 43.229,37.477 			"/>
		</g>
	</g>
</g>
<g display="none">
	<g display="inline">
		<g>
			<g>
				<g>
					<path fill="#EBF5FF" d="M32.593,64.5c17.622,0,31.907-14.326,31.907-32c0-17.674-14.285-32-31.907-32s-31.907,14.326-31.907,32
						C0.686,50.174,14.971,64.5,32.593,64.5z"/>
				</g>
			</g>
		</g>
		<g>
			<polyline fill="none" stroke="#96C8FF" stroke-width="1.2299" stroke-miterlimit="10" points="27.631,21.834 41.811,32.5 
				27.631,43.167 			"/>
			
				<polyline fill="none" stroke="#3A3A3E" stroke-width="9.0971" stroke-linecap="round" stroke-linejoin="round" stroke-miterlimit="10" points="
				27.631,21.834 41.811,32.5 27.631,43.167 			"/>
		</g>
	</g>
</g>
<g display="none">
	<g display="inline">
		<g>
			<g>
				<g>
					<path fill="#EBF5FF" d="M0.686,32.5c0,17.673,14.285,32,31.906,32c17.624,0,31.908-14.327,31.908-32s-14.284-32-31.908-32
						C14.971,0.5,0.686,14.827,0.686,32.5z"/>
				</g>
			</g>
		</g>
		<g>
			<polyline fill="none" stroke="#96C8FF" stroke-width="1.2299" stroke-miterlimit="10" points="43.229,27.523 32.593,41.745 
				21.958,27.523 			"/>
			
				<polyline fill="none" stroke="#3A3A3E" stroke-width="9.0971" stroke-linecap="round" stroke-linejoin="round" stroke-miterlimit="10" points="
				43.229,27.523 32.593,41.745 21.958,27.523 			"/>
		</g>
	</g>
</g>
<g display="none">
	<g display="inline">
		<ellipse fill="#4A4A4E" cx="32.516" cy="32.544" rx="28.253" ry="28.335"/>
		<g>
			<g>
				<g>
					<path fill="#3A3A3E" d="M32.593,62c16.246,0,29.415-13.207,29.415-29.5c0-16.292-13.169-29.499-29.415-29.499
						C16.35,3.001,3.179,16.208,3.179,32.5C3.179,48.792,16.35,62,32.593,62z"/>
				</g>
			</g>
		</g>
	</g>
	<g display="inline">
		<g>
			<path fill="#EBF5FF" d="M32.593,0.5c-17.622,0-31.907,14.328-31.907,32c0,17.673,14.285,32,31.907,32
				c17.623,0,31.907-14.327,31.907-32C64.5,14.828,50.216,0.5,32.593,0.5z M51.436,42.759c-1.395,4.304-4.501,6.285-4.501,6.285
				c-3.104,1.547-15.95,1.549-15.95,1.549c-8.488,0-15.37-6.901-15.37-15.416c0-0.179,0.004-0.356,0.011-0.534
				c0.019-2.462,0.185-12.727,1.541-15.462c0,0,1.973-3.115,6.267-4.517c0,0,0.483-0.139,0.988,0.297c0,0,2.656,2.302,4.339,4.241
				c0,0,0.607,0.507,1.683,0.565c0.179-0.006,0.36-0.018,0.542-0.018c0.002,0,0.004,0,0.008,0h0.001c0.019,0,0.036,0.006,0.05,0.007
				c8.442,0.032,15.278,6.893,15.311,15.357c0.004,0.018,0.006,0.039,0.003,0.063c-0.001,0.014-0.001,0.026-0.003,0.039
				c0,0.165-0.003,0.33-0.009,0.495c0.049,1.091,0.565,1.705,0.565,1.705c1.935,1.688,4.23,4.352,4.23,4.352
				C51.575,42.275,51.436,42.759,51.436,42.759z"/>
			<ellipse fill="#EBF5FF" cx="40.984" cy="35.367" rx="3.23" ry="3.239"/>
		</g>
	</g>
</g>
</svg>
