<?xml version="1.0" encoding="utf-8"?>
<!-- Generator: Adobe Illustrator 15.1.0, SVG Export Plug-In . SVG Version: 6.00 Build 0)  -->
<!DOCTYPE svg PUBLIC "-//W3C//DTD SVG 1.0//EN" "http://www.w3.org/TR/2001/REC-SVG-20010904/DTD/svg10.dtd">
<svg version="1.0" id="Layer_3" xmlns="http://www.w3.org/2000/svg" xmlns:xlink="http://www.w3.org/1999/xlink" x="0px" y="0px"
	 width="47.86px" height="48px" viewBox="0 0 47.86 48" enable-background="new 0 0 47.86 48" xml:space="preserve">
<g>
	<g>
		<ellipse fill="#4A4A4E" cx="23.871" cy="24.034" rx="21.189" ry="21.251"/>
		<g>
			<g>
				<g>
					<path fill="#3A3A3E" d="M23.93,46.124c12.184,0,22.061-9.904,22.061-22.124c0-12.218-9.877-22.124-22.061-22.124
						C11.747,1.876,1.87,11.781,1.87,24C1.87,36.219,11.747,46.124,23.93,46.124z"/>
				</g>
			</g>
		</g>
	</g>
	<g>
		<g>
			<path fill="#EBF5FF" d="M23.93,0C10.714,0,0,10.747,0,24s10.714,24,23.93,24c13.216,0,23.93-10.746,23.93-24S37.146,0,23.93,0z
				 M38.061,31.695c-1.045,3.228-3.375,4.714-3.375,4.714c-2.328,1.159-11.963,1.161-11.963,1.161
				c-6.365,0-11.527-5.176-11.527-11.562c0-0.135,0.003-0.268,0.008-0.401c0.014-1.846,0.138-9.544,1.156-11.596
				c0,0,1.48-2.336,4.7-3.388c0,0,0.362-0.104,0.741,0.222c0,0,1.992,1.727,3.254,3.181c0,0,0.456,0.38,1.262,0.424
				c0.134-0.004,0.27-0.013,0.406-0.013c0.001,0,0.003,0,0.006,0h0.001c0.014,0,0.027,0.004,0.038,0.005
				c6.331,0.023,11.458,5.169,11.483,11.518c0.003,0.013,0.005,0.029,0.002,0.048c0,0.01,0,0.02-0.002,0.029
				c0,0.123-0.002,0.247-0.007,0.371c0.037,0.817,0.425,1.278,0.425,1.278c1.45,1.266,3.172,3.264,3.172,3.264
				C38.166,31.332,38.061,31.695,38.061,31.695z"/>
			<ellipse fill="#EBF5FF" cx="30.223" cy="26.151" rx="2.423" ry="2.429"/>
		</g>
	</g>
</g>
</svg>
