<?xml version="1.0" encoding="utf-8"?>
<!-- Generator: Adobe Illustrator 15.1.0, SVG Export Plug-In . SVG Version: 6.00 Build 0)  -->
<!DOCTYPE svg PUBLIC "-//W3C//DTD SVG 1.0//EN" "http://www.w3.org/TR/2001/REC-SVG-20010904/DTD/svg10.dtd">
<svg version="1.0" id="Layer_1" xmlns="http://www.w3.org/2000/svg" xmlns:xlink="http://www.w3.org/1999/xlink" x="0px" y="0px"
	 width="599.215px" height="599.221px" viewBox="0 0 599.215 599.221" enable-background="new 0 0 599.215 599.221"
	 xml:space="preserve">
<g>
	<g>
		<g>
			<g>
				<g>
					<path fill="#3A3A3E" d="M299.53,543.497c123.091,0,222.862-100.068,222.862-223.518c0-123.448-99.771-223.517-222.862-223.517
						c-123.08,0-222.869,100.069-222.869,223.517C76.661,443.428,176.45,543.497,299.53,543.497z"/>
				</g>
			</g>
		</g>
		<g>
			<g>
				<g>
					<path fill="#FF0033" d="M299.608,0C134.14,0,0,134.138,0,299.608c0,165.474,134.14,299.613,299.608,299.613
						c165.47,0,299.606-134.139,299.606-299.613C599.215,134.138,465.078,0,299.608,0z M476.555,395.663
						c-13.109,40.295-42.271,58.854-42.271,58.854c-29.15,14.48-149.786,14.49-149.786,14.49c-79.7,0-144.316-64.615-144.316-144.33
						c0-1.676,0.038-3.344,0.098-5.002c0.188-23.049,1.739-119.164,14.468-144.768c0,0,18.541-29.171,58.856-42.29
						c0,0,4.526-1.304,9.289,2.77c0,0,24.942,21.554,40.73,39.71c0,0,5.697,4.76,15.804,5.287c1.683-0.055,3.378-0.156,5.071-0.156
						c0.027,0,0.049,0,0.072,0c0.008,0,0.014,0,0.014,0c0.186,0,0.34,0.046,0.48,0.065c79.267,0.306,143.446,64.539,143.767,143.791
						c0.033,0.166,0.045,0.359,0.023,0.594c-0.014,0.129-0.014,0.244-0.023,0.371c-0.004,1.545-0.039,3.082-0.092,4.615
						c0.484,10.217,5.318,15.975,5.318,15.975c18.166,15.791,39.732,40.738,39.732,40.738
						C477.861,391.133,476.555,395.663,476.555,395.663z"/>
					<path fill="#FF0033" d="M408.736,333.567c0,16.746-13.594,30.326-30.344,30.326c-16.733,0-30.333-13.58-30.333-30.326
						s13.6-30.332,30.333-30.332C395.143,303.235,408.736,316.821,408.736,333.567z"/>
				</g>
			</g>
		</g>
	</g>
</g>
</svg>
